:FULLY-SPECIFIED
:FORCE-ALL-JOINTS-BE-3DOF
:DEGREES
2548
root 4.05578 13.7432 -23.6319 -100.146 88.2274 -101.779
lfemur -36.6126 4.00397 -14.0197
ltibia 89.6154 -0 0
lfoot -25.7639 27.3636 -0.00790578
ltoes -39.7031 0 0
rfemur -55.2287 -18.9665 6.16313
rtibia 57.11 -0 0
rfoot 5.03301 6.02916 -0.0302954
rtoes 7.17075 -0 0
lowerback 17.2226 -0.511955 -3.44964
upperback -0.527241 -1.00002 3.16579
thorax -10.1706 -0.17034 5.69743
lowerneck 5.3275 -14.3667 -15.3144
upperneck -0.159718 -20.1262 14.8373
head 2.15808 -10.2193 6.24587
lclavicle 1.03324e-14 -1.00991e-14 -5.08824e-32
lhumerus -49.3745 -47.0676 113.749
lradius 105.718 -0 0
lwrist 79.6495 0 0
lhand 6.8373 40.0792 0.0873258
lfingers 7.12502 -0 0
lthumb 32.1205 67.2879 0.0855423
rclavicle 1.03324e-14 -1.00991e-14 -5.08824e-32
rhumerus 9.82438 -13.1328 -59.6455
rradius 73.4374 -0 0
rwrist 17.5432 0 0
rhand -36.2637 -46.417 -0.0289535
rfingers 7.12502 -0 0
rthumb -9.36344 -76.1967 -0.0299999
2549
root 4.05381 13.7462 -23.6666 -133.231 87.5812 -134.805
lfemur -36.6344 4.06336 -14.0491
ltibia 89.6052 -0 0
lfoot -25.7948 27.2662 -0.0167184
ltoes -39.9289 0 0
rfemur -55.2256 -19.0856 6.22019
rtibia 57.0814 -0 0
rfoot 5.01599 6.12947 -0.0575964
rtoes 7.27046 -0 0
lowerback 17.2349 -0.515211 -3.47154
upperback -0.519724 -1.00945 3.17032
thorax -10.1713 -0.173693 5.71734
lowerneck 5.34395 -14.3208 -15.3226
upperneck -0.179534 -20.0667 14.8662
head 2.14311 -10.1901 6.25761
lclavicle 1.04484e-14 -9.84718e-15 -1.05452e-31
lhumerus -49.2448 -47.5768 113.944
lradius 105.682 -0 0
lwrist 79.2587 0 0
lhand 6.94316 39.7777 0.176278
lfingers 7.12502 -0 0
lthumb 32.2208 66.9914 0.17227
rclavicle 1.04484e-14 -9.84718e-15 -1.05452e-31
rhumerus 9.98326 -13.0114 -59.6238
rradius 73.3001 -0 0
rwrist 17.6702 0 0
rhand -36.2786 -46.4659 -0.0541596
rfingers 7.12502 -0 0
rthumb -9.37697 -76.2505 -0.0561868
2550
root 4.0494 13.75 -23.7032 -150.125 86.4312 -151.637
lfemur -36.6642 4.13143 -14.0758
ltibia 89.5933 -0 0
lfoot -25.8172 27.1611 -0.0264045
ltoes -40.1444 0 0
rfemur -55.2139 -19.1991 6.28805
rtibia 57.0606 -0 0
rfoot 4.98336 6.21813 -0.0819213
rtoes 7.35917 -0 0
lowerback 17.2478 -0.51635 -3.49157
upperback -0.512321 -1.01583 3.17414
thorax -10.1726 -0.175722 5.73457
lowerneck 5.35273 -14.2642 -15.3212
upperneck -0.194019 -19.9916 14.8848
head 2.12866 -10.1529 6.26577
lclavicle 1.05849e-14 -9.58139e-15 -1.6342e-31
lhumerus -49.0617 -48.0992 114.108
lradius 105.648 -0 0
lwrist 78.8208 0 0
lhand 7.03131 39.4668 0.266701
lfingers 7.12502 -0 0
lthumb 32.3041 66.6868 0.26004
rclavicle 1.05849e-14 -9.58139e-15 -1.6342e-31
rhumerus 10.1374 -12.8437 -59.6066
rradius 73.1784 -0 0
rwrist 17.7723 0 0
rhand -36.2745 -46.5029 -0.0756601
rfingers 7.12502 -0 0
rthumb -9.37223 -76.2919 -0.0786021
2551
root 4.04259 13.7545 -23.7414 -158.83 85.0424 -160.275
lfemur -36.7018 4.20798 -14.0999
ltibia 89.5795 -0 0
lfoot -25.8311 27.0486 -0.0369276
ltoes -40.3496 0 0
rfemur -55.1937 -19.3069 6.36648
rtibia 57.0475 -0 0
rfoot 4.93545 6.29536 -0.103299
rtoes 7.43707 -0 0
lowerback 17.2615 -0.515415 -3.50976
upperback -0.505031 -1.01922 3.17725
thorax -10.1746 -0.176454 5.74916
lowerneck 5.35402 -14.197 -15.3105
upperneck -0.203293 -19.9012 14.8934
head 2.11474 -10.1078 6.27042
lclavicle 1.07414e-14 -9.30209e-15 -2.24489e-31
lhumerus -48.8249 -48.6346 114.238
lradius 105.614 -0 0
lwrist 78.3368 0 0
lhand 7.10204 39.1465 0.358435
lfingers 7.12502 -0 0
lthumb 32.3707 66.3743 0.348702
rclavicle 1.07414e-14 -9.30209e-15 -2.24489e-31
rhumerus 10.2869 -12.6307 -59.5935
rradius 73.0719 -0 0
rwrist 17.85 0 0
rhand -36.2518 -46.5283 -0.0935094
rfingers 7.12502 -0 0
rthumb -9.34961 -76.321 -0.0973004
2552
root 4.03344 13.7598 -23.7814 -163.906 83.506 -165.28
lfemur -36.747 4.29282 -14.1214
ltibia 89.5641 -0 0
lfoot -25.8368 26.9287 -0.0482513
ltoes -40.5448 0 0
rfemur -55.1652 -19.4092 6.45523
rtibia 57.0419 -0 0
rfoot 4.8726 6.36141 -0.121769
rtoes 7.50438 -0 0
lowerback 17.2759 -0.512448 -3.52614
upperback -0.497852 -1.01966 3.17967
thorax -10.1773 -0.175914 5.76117
lowerneck 5.34797 -14.1196 -15.2906
upperneck -0.207483 -19.7958 14.8921
head 2.10133 -10.0548 6.27164
lclavicle 1.09173e-14 -9.00967e-15 -2.88356e-31
lhumerus -48.5339 -49.1826 114.334
lradius 105.581 -0 0
lwrist 77.8077 0 0
lhand 7.15559 38.8173 0.451312
lfingers 7.12502 -0 0
lthumb 32.4207 66.0541 0.438103
rclavicle 1.09173e-14 -9.00967e-15 -2.88356e-31
rhumerus 10.4317 -12.3732 -59.5844
rradius 72.9805 -0 0
rwrist 17.9037 0 0
rhand -36.2109 -46.5424 -0.107774
rfingers 7.12502 -0 0
rthumb -9.30949 -76.3381 -0.112348
2553
root 4.02199 13.7657 -23.823 -167.182 81.8558 -168.482
lfemur -36.7998 4.38577 -14.1404
ltibia 89.5469 -0 0
lfoot -25.8343 26.8018 -0.0603293
ltoes -40.73 0 0
rfemur -55.1286 -19.5061 6.55406
rtibia 57.0437 -0 0
rfoot 4.79514 6.41648 -0.137379
rtoes 7.5613 -0 0
lowerback 17.2909 -0.507491 -3.54074
upperback -0.490782 -1.01724 3.18142
thorax -10.1806 -0.174129 5.77063
lowerneck 5.33479 -14.032 -15.2619
upperneck -0.206726 -19.6758 14.8813
head 2.08841 -9.99433 6.26949
lclavicle 1.1112e-14 -8.70447e-15 -3.5471e-31
lhumerus -48.188 -49.7426 114.395
lradius 105.549 -0 0
lwrist 77.2345 0 0
lhand 7.19224 38.4793 0.545158
lfingers 7.12502 -0 0
lthumb 32.4545 65.7264 0.528085
rclavicle 1.1112e-14 -8.70447e-15 -3.5471e-31
rhumerus 10.5719 -12.0722 -59.5789
rradius 72.9038 -0 0
rwrist 17.934 0 0
rhand -36.1522 -46.5454 -0.11853
rfingers 7.12502 -0 0
rthumb -9.25224 -76.3434 -0.123823
